<svg xmlns="http://www.w3.org/2000/svg" xmlns:xlink="http://www.w3.org/1999/xlink" width="851" zoomAndPan="magnify" viewBox="0 0 638.25 135.000003" height="180" preserveAspectRatio="xMidYMid meet" version="1.2"><defs><clipPath id="c9fb38010c"><path d="M 339 82 L 358 82 L 358 94 L 339 94 Z M 339 82 "/></clipPath><clipPath id="a115c8f064"><path d="M 339.402344 93.375 L 353.667969 79.109375 L 357.257812 82.703125 L 342.992188 96.964844 Z M 339.402344 93.375 "/></clipPath><clipPath id="1361791642"><path d="M 350.097656 82.679688 L 339.402344 93.375 L 346.558594 93.402344 L 357.253906 82.707031 Z M 350.097656 82.679688 "/></clipPath><clipPath id="65f94d6dbb"><path d="M 357.253906 76.230469 L 362.332031 76.230469 L 362.332031 96.402344 L 357.253906 96.402344 Z M 357.253906 76.230469 "/></clipPath><clipPath id="8ac6091bb2"><path d="M 357.253906 81.277344 L 357.253906 96.402344 L 362.332031 91.359375 L 362.332031 76.234375 Z M 357.253906 81.277344 "/></clipPath><clipPath id="89c84f7bd2"><path d="M 345 53 L 363 53 L 363 64 L 345 64 Z M 345 53 "/></clipPath><clipPath id="31b5abe2ec"><path d="M 362.851562 53.050781 L 348.585938 67.316406 L 344.996094 63.722656 L 359.257812 49.460938 Z M 362.851562 53.050781 "/></clipPath><clipPath id="f055904794"><path d="M 352.15625 63.746094 L 362.851562 53.050781 L 355.695312 53.023438 L 345 63.722656 Z M 352.15625 63.746094 "/></clipPath><clipPath id="662ac17dc6"><path d="M 360 67 L 372 67 L 372 86 L 360 86 Z M 360 67 "/></clipPath><clipPath id="45b34f8250"><path d="M 371.027344 85.160156 L 356.761719 70.894531 L 360.351562 67.304688 L 374.617188 81.570312 Z M 371.027344 85.160156 "/></clipPath><clipPath id="3f74a7f428"><path d="M 360.332031 74.464844 L 371.027344 85.160156 L 371.050781 78.003906 L 360.355469 67.308594 Z M 360.332031 74.464844 "/></clipPath><clipPath id="6e221d527f"><path d="M 339.996094 50.429688 L 345.074219 50.429688 L 345.074219 70.601562 L 339.996094 70.601562 Z M 339.996094 50.429688 "/></clipPath><clipPath id="2e1044edb0"><path d="M 345.074219 65.554688 L 345.074219 50.429688 L 339.996094 55.472656 L 339.996094 70.597656 Z M 345.074219 65.554688 "/></clipPath><clipPath id="8883b40716"><path d="M 353.550781 62.230469 L 373.722656 62.230469 L 373.722656 67.308594 L 353.550781 67.308594 Z M 353.550781 62.230469 "/></clipPath><clipPath id="a5a3591b66"><path d="M 358.597656 67.308594 L 373.722656 67.308594 L 368.679688 62.230469 L 353.554688 62.230469 Z M 358.597656 67.308594 "/></clipPath><clipPath id="cbfefda797"><path d="M 330 61 L 342 61 L 342 80 L 330 80 Z M 330 61 "/></clipPath><clipPath id="07ae10ff44"><path d="M 330.742188 61.265625 L 345.003906 75.53125 L 341.414062 79.121094 L 327.148438 64.855469 Z M 330.742188 61.265625 "/></clipPath><clipPath id="782ede5c6e"><path d="M 341.4375 71.960938 L 330.742188 61.265625 L 330.714844 68.421875 L 341.410156 79.117188 Z M 341.4375 71.960938 "/></clipPath><clipPath id="cc7721dcb3"><path d="M 328.625 79.117188 L 348.796875 79.117188 L 348.796875 84.195312 L 328.625 84.195312 Z M 328.625 79.117188 "/></clipPath><clipPath id="6bc6417a69"><path d="M 343.75 79.117188 L 328.625 79.117188 L 333.664062 84.195312 L 348.792969 84.195312 Z M 343.75 79.117188 "/></clipPath><clipPath id="f82479b55a"><path d="M 462.148438 22.003906 L 574 22.003906 L 574 107 L 462.148438 107 Z M 462.148438 22.003906 "/></clipPath><clipPath id="ed40c6209e"><path d="M 568 42 L 577.230469 42 L 577.230469 104 L 568 104 Z M 568 42 "/></clipPath><clipPath id="a4af2f7668"><path d="M 510 108 L 574 108 L 574 111.992188 L 510 111.992188 Z M 510 108 "/></clipPath><clipPath id="ea08ff87df"><path d="M 64 27 L 175.664062 27 L 175.664062 111.992188 L 64 111.992188 Z M 64 27 "/></clipPath><clipPath id="48f48a9fb2"><path d="M 60.269531 30 L 70 30 L 70 92 L 60.269531 92 Z M 60.269531 30 "/></clipPath><clipPath id="f2cdd4728c"><path d="M 64 21.910156 L 127 21.910156 L 127 26 L 64 26 Z M 64 21.910156 "/></clipPath></defs><g id="a514d64b4f"><g style="fill:#000000;fill-opacity:1;"><g transform="translate(60.270781, 93.307543)"><path style="stroke:none" d=""/></g></g><g style="fill:#000000;fill-opacity:1;"><g transform="translate(76.710694, 93.307543)"><path style="stroke:none" d="M 4.9375 0 L 4.9375 -10.015625 L 30.59375 -10.015625 L 32.9375 -12.359375 L 32.9375 -17.828125 L 30.59375 -20.171875 L 10.421875 -20.171875 L 3 -27.65625 L 3 -41.8125 L 10.421875 -49.234375 L 42.609375 -49.234375 L 42.609375 -39.203125 L 17.640625 -39.203125 L 15.296875 -36.875 L 15.296875 -32.53125 L 17.640625 -30.1875 L 37.8125 -30.1875 L 45.21875 -22.78125 L 45.21875 -7.421875 L 37.8125 0 Z M 4.9375 0 "/></g></g><g style="fill:#000000;fill-opacity:1;"><g transform="translate(124.937993, 93.307543)"><path style="stroke:none" d="M 4.34375 12.484375 L 4.34375 -34.875 L 16.828125 -34.875 L 16.828125 -30.796875 L 21.640625 -34.9375 L 34.203125 -34.9375 L 41.609375 -27.453125 L 41.609375 -7.421875 L 34.203125 0 L 21.703125 0 L 16.828125 -4.078125 L 16.828125 12.484375 Z M 22.578125 -7.140625 L 27.859375 -7.140625 L 29.453125 -8.8125 L 29.453125 -25.984375 L 27.859375 -27.78125 L 22.515625 -27.78125 L 16.828125 -22.78125 L 16.828125 -12.09375 Z M 22.578125 -7.140625 "/></g></g><g style="fill:#000000;fill-opacity:1;"><g transform="translate(169.892257, 93.307543)"><path style="stroke:none" d="M 4.34375 0 L 4.34375 -49.234375 L 16.828125 -49.234375 L 16.828125 -30.796875 L 21.90625 -34.9375 L 33.9375 -34.9375 L 41.34375 -27.453125 L 41.34375 0 L 28.859375 0 L 28.859375 -25.71875 L 26.578125 -27.859375 L 22.984375 -27.859375 L 16.828125 -22.640625 L 16.828125 0 Z M 4.34375 0 "/></g></g><g style="fill:#000000;fill-opacity:1;"><g transform="translate(214.913319, 93.307543)"><path style="stroke:none" d="M 10.75 0 L 3.34375 -7.421875 L 3.34375 -27.453125 L 10.75 -34.875 L 30.390625 -34.875 L 37.8125 -27.453125 L 37.8125 -14.234375 L 15.828125 -14.234375 L 15.828125 -11.15625 L 18.234375 -8.8125 L 37.265625 -8.8125 L 37.265625 0 Z M 15.828125 -21.4375 L 26.453125 -21.4375 L 26.453125 -25.578125 L 24.046875 -27.921875 L 18.234375 -27.921875 L 15.828125 -25.578125 Z M 15.828125 -21.4375 "/></g></g><g style="fill:#000000;fill-opacity:1;"><g transform="translate(256.394149, 93.307543)"><path style="stroke:none" d="M 4.34375 0 L 4.34375 -34.9375 L 16.828125 -34.9375 L 16.828125 -29.453125 L 22.78125 -34.875 L 29.59375 -34.875 L 29.59375 -23.71875 L 19.578125 -23.71875 L 16.828125 -21.234375 L 16.828125 0 Z M 4.34375 0 "/></g></g><g style="fill:#000000;fill-opacity:1;"><g transform="translate(285.918334, 93.307543)"><path style="stroke:none" d="M 10.75 0 L 3.34375 -7.421875 L 3.34375 -27.453125 L 10.75 -34.875 L 30.390625 -34.875 L 37.8125 -27.453125 L 37.8125 -14.234375 L 15.828125 -14.234375 L 15.828125 -11.15625 L 18.234375 -8.8125 L 37.265625 -8.8125 L 37.265625 0 Z M 15.828125 -21.4375 L 26.453125 -21.4375 L 26.453125 -25.578125 L 24.046875 -27.921875 L 18.234375 -27.921875 L 15.828125 -25.578125 Z M 15.828125 -21.4375 "/></g></g><g style="fill:#000000;fill-opacity:1;"><g transform="translate(327.399802, 93.307543)"><path style="stroke:none" d=""/></g></g><g style="fill:#000000;fill-opacity:1;"><g transform="translate(343.831821, 93.307543)"><path style="stroke:none" d=""/></g></g><g style="fill:#000000;fill-opacity:1;"><g transform="translate(360.279627, 93.307543)"><path style="stroke:none" d=""/></g></g><g style="fill:#f59e0b;fill-opacity:1;"><g transform="translate(375.114692, 93.307543)"><path style="stroke:none" d="M 4.28125 0 L 4.28125 -27.125 L 1.46875 -27.125 L 1.46875 -34.875 L 4.28125 -34.875 L 4.28125 -42.6875 L 11.359375 -49.234375 L 24.515625 -49.234375 L 24.515625 -41.953125 L 18.640625 -41.953125 L 16.765625 -40.140625 L 16.765625 -34.875 L 22.90625 -34.875 L 22.90625 -27.125 L 16.765625 -27.125 L 16.765625 0 Z M 4.28125 0 "/></g></g><g style="fill:#000000;fill-opacity:1;"><g transform="translate(401.849122, 93.307543)"><path style="stroke:none" d="M 14.09375 0 L 14.09375 -39.078125 L 0.328125 -39.078125 L 0.328125 -49.234375 L 40.34375 -49.234375 L 40.34375 -39.078125 L 26.578125 -39.078125 L 26.578125 0 Z M 14.09375 0 "/></g></g><g style="fill:#000000;fill-opacity:1;"><g transform="translate(435.915268, 93.307543)"><path style="stroke:none" d="M 10.75 0 L 3.34375 -7.421875 L 3.34375 -27.453125 L 10.75 -34.875 L 30.390625 -34.875 L 37.8125 -27.453125 L 37.8125 -14.234375 L 15.828125 -14.234375 L 15.828125 -11.15625 L 18.234375 -8.8125 L 37.265625 -8.8125 L 37.265625 0 Z M 15.828125 -21.4375 L 26.453125 -21.4375 L 26.453125 -25.578125 L 24.046875 -27.921875 L 18.234375 -27.921875 L 15.828125 -25.578125 Z M 15.828125 -21.4375 "/></g></g><g style="fill:#000000;fill-opacity:1;"><g transform="translate(477.396098, 93.307543)"><path style="stroke:none" d="M 10.75 0 L 3.34375 -7.421875 L 3.34375 -27.453125 L 10.75 -34.875 L 31.0625 -34.875 L 38.078125 -28.453125 L 38.078125 -21.640625 L 25.578125 -21.640625 L 25.578125 -25.578125 L 23.25 -27.921875 L 18.171875 -27.921875 L 15.828125 -25.578125 L 15.828125 -11.15625 L 18.171875 -8.8125 L 37.34375 -8.8125 L 37.34375 0 Z M 10.75 0 "/></g></g><g style="fill:#000000;fill-opacity:1;"><g transform="translate(518.142164, 93.307543)"><path style="stroke:none" d="M 4.34375 0 L 4.34375 -49.234375 L 16.828125 -49.234375 L 16.828125 -30.796875 L 21.90625 -34.9375 L 33.9375 -34.9375 L 41.34375 -27.453125 L 41.34375 0 L 28.859375 0 L 28.859375 -25.71875 L 26.578125 -27.859375 L 22.984375 -27.859375 L 16.828125 -22.640625 L 16.828125 0 Z M 4.34375 0 "/></g></g><g clip-rule="nonzero" clip-path="url(#c9fb38010c)"><g clip-rule="nonzero" clip-path="url(#a115c8f064)"><g clip-rule="nonzero" clip-path="url(#1361791642)"><path style=" stroke:none;fill-rule:nonzero;fill:#f59e0b;fill-opacity:1;" d="M 339.402344 93.375 L 353.667969 79.109375 L 357.257812 82.703125 L 342.992188 96.964844 Z M 339.402344 93.375 "/></g></g></g><g clip-rule="nonzero" clip-path="url(#65f94d6dbb)"><g clip-rule="nonzero" clip-path="url(#8ac6091bb2)"><path style=" stroke:none;fill-rule:nonzero;fill:#f59e0b;fill-opacity:1;" d="M 357.253906 96.402344 L 357.253906 76.230469 L 362.332031 76.230469 L 362.332031 96.402344 Z M 357.253906 96.402344 "/></g></g><g clip-rule="nonzero" clip-path="url(#89c84f7bd2)"><g clip-rule="nonzero" clip-path="url(#31b5abe2ec)"><g clip-rule="nonzero" clip-path="url(#f055904794)"><path style=" stroke:none;fill-rule:nonzero;fill:#f59e0b;fill-opacity:1;" d="M 362.851562 53.050781 L 348.585938 67.316406 L 344.996094 63.722656 L 359.257812 49.460938 Z M 362.851562 53.050781 "/></g></g></g><g clip-rule="nonzero" clip-path="url(#662ac17dc6)"><g clip-rule="nonzero" clip-path="url(#45b34f8250)"><g clip-rule="nonzero" clip-path="url(#3f74a7f428)"><path style=" stroke:none;fill-rule:nonzero;fill:#f59e0b;fill-opacity:1;" d="M 371.027344 85.160156 L 356.761719 70.894531 L 360.351562 67.304688 L 374.617188 81.570312 Z M 371.027344 85.160156 "/></g></g></g><g clip-rule="nonzero" clip-path="url(#6e221d527f)"><g clip-rule="nonzero" clip-path="url(#2e1044edb0)"><path style=" stroke:none;fill-rule:nonzero;fill:#f59e0b;fill-opacity:1;" d="M 345.074219 50.429688 L 345.074219 70.601562 L 339.996094 70.601562 L 339.996094 50.429688 Z M 345.074219 50.429688 "/></g></g><g clip-rule="nonzero" clip-path="url(#8883b40716)"><g clip-rule="nonzero" clip-path="url(#a5a3591b66)"><path style=" stroke:none;fill-rule:nonzero;fill:#f59e0b;fill-opacity:1;" d="M 373.722656 67.308594 L 353.550781 67.308594 L 353.550781 62.230469 L 373.722656 62.230469 Z M 373.722656 67.308594 "/></g></g><g clip-rule="nonzero" clip-path="url(#cbfefda797)"><g clip-rule="nonzero" clip-path="url(#07ae10ff44)"><g clip-rule="nonzero" clip-path="url(#782ede5c6e)"><path style=" stroke:none;fill-rule:nonzero;fill:#f59e0b;fill-opacity:1;" d="M 330.742188 61.265625 L 345.003906 75.53125 L 341.414062 79.121094 L 327.148438 64.855469 Z M 330.742188 61.265625 "/></g></g></g><g clip-rule="nonzero" clip-path="url(#cc7721dcb3)"><g clip-rule="nonzero" clip-path="url(#6bc6417a69)"><path style=" stroke:none;fill-rule:nonzero;fill:#f59e0b;fill-opacity:1;" d="M 328.625 79.117188 L 348.796875 79.117188 L 348.796875 84.195312 L 328.625 84.195312 Z M 328.625 79.117188 "/></g></g><g clip-rule="nonzero" clip-path="url(#f82479b55a)"><path style=" stroke:none;fill-rule:nonzero;fill:#f59e0b;fill-opacity:1;" d="M 572.730469 106.953125 L 462.3125 106.953125 L 462.3125 105.929688 L 572.21875 105.929688 L 572.21875 22 L 573.242188 22 L 573.242188 106.953125 Z M 572.730469 106.953125 "/></g><path style=" stroke:none;fill-rule:nonzero;fill:#f59e0b;fill-opacity:1;" d="M 572.730469 103.851562 L 513.628906 103.851562 L 506.746094 110.734375 L 487.265625 110.734375 L 487.265625 109.707031 L 506.324219 109.707031 L 513.203125 102.828125 L 572.730469 102.828125 Z M 572.730469 103.851562 "/><g clip-rule="nonzero" clip-path="url(#ed40c6209e)"><path style=" stroke:none;fill-rule:nonzero;fill:#f59e0b;fill-opacity:1;" d="M 568.339844 103.339844 L 568.339844 65.796875 L 576.167969 52.238281 L 576.167969 42.28125 L 577.191406 42.28125 L 577.191406 52.503906 L 569.367188 66.0625 L 569.367188 103.339844 Z M 568.339844 103.339844 "/></g><g clip-rule="nonzero" clip-path="url(#a4af2f7668)"><path style=" stroke:none;fill-rule:evenodd;fill:#f59e0b;fill-opacity:1;" d="M 569.367188 108.988281 L 513.925781 108.988281 L 510.828125 112.089844 L 573.242188 112.089844 L 573.242188 108.988281 Z M 569.367188 108.988281 "/></g><g clip-rule="nonzero" clip-path="url(#ea08ff87df)"><path style=" stroke:none;fill-rule:nonzero;fill:#f59e0b;fill-opacity:1;" d="M 64.769531 27.046875 L 175.191406 27.046875 L 175.191406 28.070312 L 65.285156 28.070312 L 65.285156 112 L 64.257812 112 L 64.257812 27.046875 Z M 64.769531 27.046875 "/></g><path style=" stroke:none;fill-rule:nonzero;fill:#f59e0b;fill-opacity:1;" d="M 64.769531 30.144531 L 123.875 30.144531 L 130.753906 23.265625 L 150.234375 23.265625 L 150.234375 24.289062 L 131.175781 24.289062 L 124.296875 31.171875 L 64.769531 31.171875 Z M 64.769531 30.144531 "/><g clip-rule="nonzero" clip-path="url(#48f48a9fb2)"><path style=" stroke:none;fill-rule:nonzero;fill:#f59e0b;fill-opacity:1;" d="M 69.160156 30.660156 L 69.160156 68.203125 L 61.332031 81.761719 L 61.332031 91.71875 L 60.308594 91.71875 L 60.308594 81.496094 L 68.132812 67.9375 L 68.132812 30.660156 Z M 69.160156 30.660156 "/></g><g clip-rule="nonzero" clip-path="url(#f2cdd4728c)"><path style=" stroke:none;fill-rule:evenodd;fill:#f59e0b;fill-opacity:1;" d="M 68.132812 25.011719 L 123.574219 25.011719 L 126.671875 21.910156 L 64.257812 21.910156 L 64.257812 25.011719 Z M 68.132812 25.011719 "/></g></g></svg>